  0
SECTION
  2
HEADER
  9
$ACADVER
  1
AC1009
  9
$EXTMIN
 10
0.0
 20
0.0
 30
0.0
  9
$EXTMAX
 10
1000.0
 20
1000.0
 30
0.0
  9
$FILLMODE
 70
 0
  9
$SPLFRAME
 70
 1
  0
ENDSEC
  0
SECTION
  2
TABLES
  0
TABLE
  2
LAYER
 70
1
  0
LAYER
  2
0
 70
     0
 62
     7
  6
CONTINUOUS
  0
ENDTAB
  0
ENDSEC
  0
SECTION
  2
ENTITIES
  0
LINE
  8
0
 62
     0
 10
131.024
 20
110.677
 30
0.0
 11
131.181
 21
110.67
 31
0.0
  0
LINE
  8
0
 62
     0
 10
131.181
 20
110.67
 30
0.0
 11
131.337
 21
110.652
 31
0.0
  0
LINE
  8
0
 62
     0
 10
131.337
 20
110.652
 30
0.0
 11
131.491
 21
110.622
 31
0.0
  0
LINE
  8
0
 62
     0
 10
131.491
 20
110.622
 30
0.0
 11
131.641
 21
110.579
 31
0.0
  0
LINE
  8
0
 62
     0
 10
131.641
 20
110.579
 30
0.0
 11
131.789
 21
110.524
 31
0.0
  0
LINE
  8
0
 62
     0
 10
131.789
 20
110.524
 30
0.0
 11
131.932
 21
110.459
 31
0.0
  0
LINE
  8
0
 62
     0
 10
131.932
 20
110.459
 30
0.0
 11
132.068
 21
110.382
 31
0.0
  0
LINE
  8
0
 62
     0
 10
132.068
 20
110.382
 30
0.0
 11
132.199
 21
110.295
 31
0.0
  0
LINE
  8
0
 62
     0
 10
132.199
 20
110.295
 30
0.0
 11
132.322
 21
110.198
 31
0.0
  0
LINE
  8
0
 62
     0
 10
132.322
 20
110.198
 30
0.0
 11
132.438
 21
110.091
 31
0.0
  0
LINE
  8
0
 62
     0
 10
132.438
 20
110.091
 30
0.0
 11
132.544
 21
109.976
 31
0.0
  0
LINE
  8
0
 62
     0
 10
132.544
 20
109.976
 30
0.0
 11
132.642
 21
109.853
 31
0.0
  0
LINE
  8
0
 62
     0
 10
132.642
 20
109.853
 30
0.0
 11
132.728
 21
109.722
 31
0.0
  0
LINE
  8
0
 62
     0
 10
132.728
 20
109.722
 30
0.0
 11
132.806
 21
109.584
 31
0.0
  0
LINE
  8
0
 62
     0
 10
132.806
 20
109.584
 30
0.0
 11
132.872
 21
109.442
 31
0.0
  0
LINE
  8
0
 62
     0
 10
132.872
 20
109.442
 30
0.0
 11
132.926
 21
109.296
 31
0.0
  0
LINE
  8
0
 62
     0
 10
132.926
 20
109.296
 30
0.0
 11
132.968
 21
109.143
 31
0.0
  0
LINE
  8
0
 62
     0
 10
132.968
 20
109.143
 30
0.0
 11
132.999
 21
108.99
 31
0.0
  0
LINE
  8
0
 62
     0
 10
132.999
 20
108.99
 30
0.0
 11
133.018
 21
108.833
 31
0.0
  0
LINE
  8
0
 62
     0
 10
133.018
 20
108.833
 30
0.0
 11
133.023
 21
108.676
 31
0.0
  0
LINE
  8
0
 62
     0
 10
133.023
 20
108.676
 30
0.0
 11
133.023
 21
2.12907
 31
0.0
  0
LINE
  8
0
 62
     0
 10
133.023
 20
2.12907
 30
0.0
 11
133.018
 21
1.97197
 31
0.0
  0
LINE
  8
0
 62
     0
 10
133.018
 20
1.97197
 30
0.0
 11
132.999
 21
1.81626
 31
0.0
  0
LINE
  8
0
 62
     0
 10
132.999
 20
1.81626
 30
0.0
 11
132.968
 21
1.66191
 31
0.0
  0
LINE
  8
0
 62
     0
 10
132.968
 20
1.66191
 30
0.0
 11
132.926
 21
1.51033
 31
0.0
  0
LINE
  8
0
 62
     0
 10
132.926
 20
1.51033
 30
0.0
 11
132.872
 21
1.36426
 31
0.0
  0
LINE
  8
0
 62
     0
 10
132.872
 20
1.36426
 30
0.0
 11
132.806
 21
1.22094
 31
0.0
  0
LINE
  8
0
 62
     0
 10
132.806
 20
1.22094
 30
0.0
 11
132.728
 21
1.08314
 31
0.0
  0
LINE
  8
0
 62
     0
 10
132.728
 20
1.08314
 30
0.0
 11
132.642
 21
0.952225
 31
0.0
  0
LINE
  8
0
 62
     0
 10
132.642
 20
0.952225
 30
0.0
 11
132.544
 21
0.829578
 31
0.0
  0
LINE
  8
0
 62
     0
 10
132.544
 20
0.829578
 30
0.0
 11
132.438
 21
0.7152
 31
0.0
  0
LINE
  8
0
 62
     0
 10
132.438
 20
0.7152
 30
0.0
 11
132.322
 21
0.607716
 31
0.0
  0
LINE
  8
0
 62
     0
 10
132.322
 20
0.607716
 30
0.0
 11
132.199
 21
0.511253
 31
0.0
  0
LINE
  8
0
 62
     0
 10
132.199
 20
0.511253
 30
0.0
 11
132.068
 21
0.423058
 31
0.0
  0
LINE
  8
0
 62
     0
 10
132.068
 20
0.423058
 30
0.0
 11
131.932
 21
0.347266
 31
0.0
  0
LINE
  8
0
 62
     0
 10
131.932
 20
0.347266
 30
0.0
 11
131.789
 21
0.28112
 31
0.0
  0
LINE
  8
0
 62
     0
 10
131.789
 20
0.28112
 30
0.0
 11
131.641
 21
0.227376
 31
0.0
  0
LINE
  8
0
 62
     0
 10
131.641
 20
0.227376
 30
0.0
 11
131.491
 21
0.183279
 31
0.0
  0
LINE
  8
0
 62
     0
 10
131.491
 20
0.183279
 30
0.0
 11
131.337
 21
0.15434
 31
0.0
  0
LINE
  8
0
 62
     0
 10
131.337
 20
0.15434
 30
0.0
 11
131.181
 21
0.135048
 31
0.0
  0
LINE
  8
0
 62
     0
 10
131.181
 20
0.135048
 30
0.0
 11
131.024
 21
0.128157
 31
0.0
  0
LINE
  8
0
 62
     0
 10
131.024
 20
0.128157
 30
0.0
 11
2.096
 21
0.128157
 31
0.0
  0
LINE
  8
0
 62
     0
 10
2.096
 20
0.128157
 30
0.0
 11
1.9389
 21
0.135048
 31
0.0
  0
LINE
  8
0
 62
     0
 10
1.9389
 20
0.135048
 30
0.0
 11
1.7818
 21
0.15434
 31
0.0
  0
LINE
  8
0
 62
     0
 10
1.7818
 20
0.15434
 30
0.0
 11
1.62884
 21
0.183279
 31
0.0
  0
LINE
  8
0
 62
     0
 10
1.62884
 20
0.183279
 30
0.0
 11
1.47588
 21
0.227376
 31
0.0
  0
LINE
  8
0
 62
     0
 10
1.47588
 20
0.227376
 30
0.0
 11
1.32981
 21
0.28112
 31
0.0
  0
LINE
  8
0
 62
     0
 10
1.32981
 20
0.28112
 30
0.0
 11
1.18787
 21
0.347266
 31
0.0
  0
LINE
  8
0
 62
     0
 10
1.18787
 20
0.347266
 30
0.0
 11
1.05006
 21
0.423058
 31
0.0
  0
LINE
  8
0
 62
     0
 10
1.05006
 20
0.423058
 30
0.0
 11
0.919152
 21
0.511253
 31
0.0
  0
LINE
  8
0
 62
     0
 10
0.919152
 20
0.511253
 30
0.0
 11
0.796505
 21
0.607716
 31
0.0
  0
LINE
  8
0
 62
     0
 10
0.796505
 20
0.607716
 30
0.0
 11
0.680752
 21
0.7152
 31
0.0
  0
LINE
  8
0
 62
     0
 10
0.680752
 20
0.7152
 30
0.0
 11
0.574643
 21
0.829578
 31
0.0
  0
LINE
  8
0
 62
     0
 10
0.574643
 20
0.829578
 30
0.0
 11
0.4768
 21
0.952225
 31
0.0
  0
LINE
  8
0
 62
     0
 10
0.4768
 20
0.952225
 30
0.0
 11
0.389985
 21
1.08314
 31
0.0
  0
LINE
  8
0
 62
     0
 10
0.389985
 20
1.08314
 30
0.0
 11
0.312815
 21
1.22094
 31
0.0
  0
LINE
  8
0
 62
     0
 10
0.312815
 20
1.22094
 30
0.0
 11
0.248047
 21
1.36426
 31
0.0
  0
LINE
  8
0
 62
     0
 10
0.248047
 20
1.36426
 30
0.0
 11
0.192925
 21
1.51033
 31
0.0
  0
LINE
  8
0
 62
     0
 10
0.192925
 20
1.51033
 30
0.0
 11
0.150206
 21
1.66191
 31
0.0
  0
LINE
  8
0
 62
     0
 10
0.150206
 20
1.66191
 30
0.0
 11
0.119889
 21
1.81626
 31
0.0
  0
LINE
  8
0
 62
     0
 10
0.119889
 20
1.81626
 30
0.0
 11
0.101975
 21
1.97197
 31
0.0
  0
LINE
  8
0
 62
     0
 10
0.101975
 20
1.97197
 30
0.0
 11
0.0950846
 21
2.12907
 31
0.0
  0
LINE
  8
0
 62
     0
 10
0.0950846
 20
2.12907
 30
0.0
 11
0.0950846
 21
108.676
 31
0.0
  0
LINE
  8
0
 62
     0
 10
0.0950846
 20
108.676
 30
0.0
 11
0.101975
 21
108.833
 31
0.0
  0
LINE
  8
0
 62
     0
 10
0.101975
 20
108.833
 30
0.0
 11
0.119889
 21
108.99
 31
0.0
  0
LINE
  8
0
 62
     0
 10
0.119889
 20
108.99
 30
0.0
 11
0.150206
 21
109.143
 31
0.0
  0
LINE
  8
0
 62
     0
 10
0.150206
 20
109.143
 30
0.0
 11
0.192925
 21
109.296
 31
0.0
  0
LINE
  8
0
 62
     0
 10
0.192925
 20
109.296
 30
0.0
 11
0.248047
 21
109.442
 31
0.0
  0
LINE
  8
0
 62
     0
 10
0.248047
 20
109.442
 30
0.0
 11
0.312815
 21
109.584
 31
0.0
  0
LINE
  8
0
 62
     0
 10
0.312815
 20
109.584
 30
0.0
 11
0.389985
 21
109.722
 31
0.0
  0
LINE
  8
0
 62
     0
 10
0.389985
 20
109.722
 30
0.0
 11
0.4768
 21
109.853
 31
0.0
  0
LINE
  8
0
 62
     0
 10
0.4768
 20
109.853
 30
0.0
 11
0.574643
 21
109.976
 31
0.0
  0
LINE
  8
0
 62
     0
 10
0.574643
 20
109.976
 30
0.0
 11
0.680752
 21
110.091
 31
0.0
  0
LINE
  8
0
 62
     0
 10
0.680752
 20
110.091
 30
0.0
 11
0.796505
 21
110.198
 31
0.0
  0
LINE
  8
0
 62
     0
 10
0.796505
 20
110.198
 30
0.0
 11
0.919152
 21
110.295
 31
0.0
  0
LINE
  8
0
 62
     0
 10
0.919152
 20
110.295
 30
0.0
 11
1.05006
 21
110.382
 31
0.0
  0
LINE
  8
0
 62
     0
 10
1.05006
 20
110.382
 30
0.0
 11
1.18787
 21
110.459
 31
0.0
  0
LINE
  8
0
 62
     0
 10
1.18787
 20
110.459
 30
0.0
 11
1.32981
 21
110.524
 31
0.0
  0
LINE
  8
0
 62
     0
 10
1.32981
 20
110.524
 30
0.0
 11
1.47588
 21
110.579
 31
0.0
  0
LINE
  8
0
 62
     0
 10
1.47588
 20
110.579
 30
0.0
 11
1.62884
 21
110.622
 31
0.0
  0
LINE
  8
0
 62
     0
 10
1.62884
 20
110.622
 30
0.0
 11
1.7818
 21
110.652
 31
0.0
  0
LINE
  8
0
 62
     0
 10
1.7818
 20
110.652
 30
0.0
 11
1.9389
 21
110.67
 31
0.0
  0
LINE
  8
0
 62
     0
 10
1.9389
 20
110.67
 30
0.0
 11
2.096
 21
110.677
 31
0.0
  0
LINE
  8
0
 62
     0
 10
2.096
 20
110.677
 30
0.0
 11
131.024
 21
110.677
 31
0.0
  0
LINE
  8
0
 62
     0
 10
130.663
 20
3.08405
 30
0.0
 11
130.405
 21
2.95176
 31
0.0
  0
LINE
  8
0
 62
     0
 10
130.405
 20
2.95176
 30
0.0
 11
130.2
 21
2.74781
 31
0.0
  0
LINE
  8
0
 62
     0
 10
130.2
 20
2.74781
 30
0.0
 11
130.069
 21
2.49011
 31
0.0
  0
LINE
  8
0
 62
     0
 10
130.069
 20
2.49011
 30
0.0
 11
130.023
 21
2.20348
 31
0.0
  0
LINE
  8
0
 62
     0
 10
130.023
 20
2.20348
 30
0.0
 11
130.069
 21
1.91823
 31
0.0
  0
LINE
  8
0
 62
     0
 10
130.069
 20
1.91823
 30
0.0
 11
130.2
 21
1.65916
 31
0.0
  0
LINE
  8
0
 62
     0
 10
130.2
 20
1.65916
 30
0.0
 11
130.405
 21
1.45521
 31
0.0
  0
LINE
  8
0
 62
     0
 10
130.405
 20
1.45521
 30
0.0
 11
130.663
 21
1.3243
 31
0.0
  0
LINE
  8
0
 62
     0
 10
130.663
 20
1.3243
 30
0.0
 11
130.948
 21
1.27882
 31
0.0
  0
LINE
  8
0
 62
     0
 10
130.948
 20
1.27882
 30
0.0
 11
131.235
 21
1.3243
 31
0.0
  0
LINE
  8
0
 62
     0
 10
131.235
 20
1.3243
 30
0.0
 11
131.492
 21
1.45521
 31
0.0
  0
LINE
  8
0
 62
     0
 10
131.492
 20
1.45521
 30
0.0
 11
131.697
 21
1.65916
 31
0.0
  0
LINE
  8
0
 62
     0
 10
131.697
 20
1.65916
 30
0.0
 11
131.829
 21
1.91823
 31
0.0
  0
LINE
  8
0
 62
     0
 10
131.829
 20
1.91823
 30
0.0
 11
131.874
 21
2.20348
 31
0.0
  0
LINE
  8
0
 62
     0
 10
131.874
 20
2.20348
 30
0.0
 11
131.829
 21
2.49011
 31
0.0
  0
LINE
  8
0
 62
     0
 10
131.829
 20
2.49011
 30
0.0
 11
131.697
 21
2.74781
 31
0.0
  0
LINE
  8
0
 62
     0
 10
131.697
 20
2.74781
 30
0.0
 11
131.492
 21
2.95176
 31
0.0
  0
LINE
  8
0
 62
     0
 10
131.492
 20
2.95176
 30
0.0
 11
131.235
 21
3.08405
 31
0.0
  0
LINE
  8
0
 62
     0
 10
131.235
 20
3.08405
 30
0.0
 11
130.948
 21
3.12815
 31
0.0
  0
LINE
  8
0
 62
     0
 10
130.948
 20
3.12815
 30
0.0
 11
130.663
 21
3.08405
 31
0.0
  0
LINE
  8
0
 62
     0
 10
1.88516
 20
3.08405
 30
0.0
 11
1.62609
 21
2.95176
 31
0.0
  0
LINE
  8
0
 62
     0
 10
1.62609
 20
2.95176
 30
0.0
 11
1.42214
 21
2.74781
 31
0.0
  0
LINE
  8
0
 62
     0
 10
1.42214
 20
2.74781
 30
0.0
 11
1.28984
 21
2.49011
 31
0.0
  0
LINE
  8
0
 62
     0
 10
1.28984
 20
2.49011
 30
0.0
 11
1.24437
 21
2.20348
 31
0.0
  0
LINE
  8
0
 62
     0
 10
1.24437
 20
2.20348
 30
0.0
 11
1.28984
 21
1.91823
 31
0.0
  0
LINE
  8
0
 62
     0
 10
1.28984
 20
1.91823
 30
0.0
 11
1.42214
 21
1.65916
 31
0.0
  0
LINE
  8
0
 62
     0
 10
1.42214
 20
1.65916
 30
0.0
 11
1.62609
 21
1.45521
 31
0.0
  0
LINE
  8
0
 62
     0
 10
1.62609
 20
1.45521
 30
0.0
 11
1.88516
 21
1.3243
 31
0.0
  0
LINE
  8
0
 62
     0
 10
1.88516
 20
1.3243
 30
0.0
 11
2.16903
 21
1.27882
 31
0.0
  0
LINE
  8
0
 62
     0
 10
2.16903
 20
1.27882
 30
0.0
 11
2.45566
 21
1.3243
 31
0.0
  0
LINE
  8
0
 62
     0
 10
2.45566
 20
1.3243
 30
0.0
 11
2.71336
 21
1.45521
 31
0.0
  0
LINE
  8
0
 62
     0
 10
2.71336
 20
1.45521
 30
0.0
 11
2.91869
 21
1.65916
 31
0.0
  0
LINE
  8
0
 62
     0
 10
2.91869
 20
1.65916
 30
0.0
 11
3.0496
 21
1.91823
 31
0.0
  0
LINE
  8
0
 62
     0
 10
3.0496
 20
1.91823
 30
0.0
 11
3.09507
 21
2.20348
 31
0.0
  0
LINE
  8
0
 62
     0
 10
3.09507
 20
2.20348
 30
0.0
 11
3.0496
 21
2.49011
 31
0.0
  0
LINE
  8
0
 62
     0
 10
3.0496
 20
2.49011
 30
0.0
 11
2.91869
 21
2.74781
 31
0.0
  0
LINE
  8
0
 62
     0
 10
2.91869
 20
2.74781
 30
0.0
 11
2.71336
 21
2.95176
 31
0.0
  0
LINE
  8
0
 62
     0
 10
2.71336
 20
2.95176
 30
0.0
 11
2.45566
 21
3.08405
 31
0.0
  0
LINE
  8
0
 62
     0
 10
2.45566
 20
3.08405
 30
0.0
 11
2.17041
 21
3.12815
 31
0.0
  0
LINE
  8
0
 62
     0
 10
2.17041
 20
3.12815
 30
0.0
 11
1.88516
 21
3.08405
 31
0.0
  0
LINE
  8
0
 62
     0
 10
92.4952
 20
20.6554
 30
0.0
 11
106.346
 21
20.6554
 31
0.0
  0
LINE
  8
0
 62
     0
 10
106.346
 20
20.6554
 30
0.0
 11
106.346
 21
6.80477
 31
0.0
  0
LINE
  8
0
 62
     0
 10
106.346
 20
6.80477
 30
0.0
 11
92.4952
 21
6.80477
 31
0.0
  0
LINE
  8
0
 62
     0
 10
92.4952
 20
6.80477
 30
0.0
 11
92.4952
 21
20.6554
 31
0.0
  0
LINE
  8
0
 62
     0
 10
73.4452
 20
25.4165
 30
0.0
 11
87.2959
 21
25.4165
 31
0.0
  0
LINE
  8
0
 62
     0
 10
87.2959
 20
25.4165
 30
0.0
 11
87.2959
 21
11.5673
 31
0.0
  0
LINE
  8
0
 62
     0
 10
87.2959
 20
11.5673
 30
0.0
 11
73.4452
 21
11.5673
 31
0.0
  0
LINE
  8
0
 62
     0
 10
73.4452
 20
11.5673
 30
0.0
 11
73.4452
 21
25.4165
 31
0.0
  0
LINE
  8
0
 62
     0
 10
111.545
 20
39.7055
 30
0.0
 11
125.396
 21
39.7055
 31
0.0
  0
LINE
  8
0
 62
     0
 10
125.396
 20
39.7055
 30
0.0
 11
125.396
 21
25.8548
 31
0.0
  0
LINE
  8
0
 62
     0
 10
125.396
 20
25.8548
 30
0.0
 11
111.545
 21
25.8548
 31
0.0
  0
LINE
  8
0
 62
     0
 10
111.545
 20
25.8548
 30
0.0
 11
111.545
 21
39.7055
 31
0.0
  0
LINE
  8
0
 62
     0
 10
92.4952
 20
39.7055
 30
0.0
 11
106.346
 21
39.7055
 31
0.0
  0
LINE
  8
0
 62
     0
 10
106.346
 20
39.7055
 30
0.0
 11
106.346
 21
25.8548
 31
0.0
  0
LINE
  8
0
 62
     0
 10
106.346
 20
25.8548
 30
0.0
 11
92.4952
 21
25.8548
 31
0.0
  0
LINE
  8
0
 62
     0
 10
92.4952
 20
25.8548
 30
0.0
 11
92.4952
 21
39.7055
 31
0.0
  0
LINE
  8
0
 62
     0
 10
73.4452
 20
44.4666
 30
0.0
 11
87.2959
 21
44.4666
 31
0.0
  0
LINE
  8
0
 62
     0
 10
87.2959
 20
44.4666
 30
0.0
 11
87.2959
 21
30.6173
 31
0.0
  0
LINE
  8
0
 62
     0
 10
87.2959
 20
30.6173
 30
0.0
 11
73.4452
 21
30.6173
 31
0.0
  0
LINE
  8
0
 62
     0
 10
73.4452
 20
30.6173
 30
0.0
 11
73.4452
 21
44.4666
 31
0.0
  0
LINE
  8
0
 62
     0
 10
51.5373
 20
49.2305
 30
0.0
 11
65.3881
 21
49.2305
 31
0.0
  0
LINE
  8
0
 62
     0
 10
65.3881
 20
49.2305
 30
0.0
 11
65.3881
 21
35.3797
 31
0.0
  0
LINE
  8
0
 62
     0
 10
65.3881
 20
35.3797
 30
0.0
 11
51.5373
 21
35.3797
 31
0.0
  0
LINE
  8
0
 62
     0
 10
51.5373
 20
35.3797
 30
0.0
 11
51.5373
 21
49.2305
 31
0.0
  0
LINE
  8
0
 62
     0
 10
29.3081
 20
43.7871
 30
0.0
 11
42.6861
 21
40.2015
 31
0.0
  0
LINE
  8
0
 62
     0
 10
42.6861
 20
40.2015
 30
0.0
 11
46.2689
 21
53.5795
 31
0.0
  0
LINE
  8
0
 62
     0
 10
46.2689
 20
53.5795
 30
0.0
 11
32.891
 21
57.1652
 31
0.0
  0
LINE
  8
0
 62
     0
 10
32.891
 20
57.1652
 30
0.0
 11
29.3081
 21
43.7871
 31
0.0
  0
LINE
  8
0
 62
     0
 10
10.9072
 20
48.7165
 30
0.0
 11
24.2852
 21
45.1323
 31
0.0
  0
LINE
  8
0
 62
     0
 10
24.2852
 20
45.1323
 30
0.0
 11
27.8694
 21
58.51
 31
0.0
  0
LINE
  8
0
 62
     0
 10
27.8694
 20
58.51
 30
0.0
 11
14.4901
 21
62.0945
 31
0.0
  0
LINE
  8
0
 62
     0
 10
14.4901
 20
62.0945
 30
0.0
 11
10.9072
 21
48.7165
 31
0.0
  0
LINE
  8
0
 62
     0
 10
112.498
 20
63.5166
 30
0.0
 11
126.347
 21
63.5166
 31
0.0
  0
LINE
  8
0
 62
     0
 10
126.347
 20
63.5166
 30
0.0
 11
126.347
 21
49.6672
 31
0.0
  0
LINE
  8
0
 62
     0
 10
126.347
 20
49.6672
 30
0.0
 11
112.498
 21
49.6672
 31
0.0
  0
LINE
  8
0
 62
     0
 10
112.498
 20
49.6672
 30
0.0
 11
112.498
 21
63.5166
 31
0.0
  0
LINE
  8
0
 62
     0
 10
93.4477
 20
64.4701
 30
0.0
 11
107.297
 21
64.4701
 31
0.0
  0
LINE
  8
0
 62
     0
 10
107.297
 20
64.4701
 30
0.0
 11
107.297
 21
50.6194
 31
0.0
  0
LINE
  8
0
 62
     0
 10
107.297
 20
50.6194
 30
0.0
 11
93.4477
 21
50.6194
 31
0.0
  0
LINE
  8
0
 62
     0
 10
93.4477
 20
50.6194
 30
0.0
 11
93.4477
 21
64.4701
 31
0.0
  0
LINE
  8
0
 62
     0
 10
70.5873
 20
67.3269
 30
0.0
 11
84.4381
 21
67.3269
 31
0.0
  0
LINE
  8
0
 62
     0
 10
84.4381
 20
67.3269
 30
0.0
 11
84.4381
 21
53.4776
 31
0.0
  0
LINE
  8
0
 62
     0
 10
84.4381
 20
53.4776
 30
0.0
 11
70.5873
 21
53.4776
 31
0.0
  0
LINE
  8
0
 62
     0
 10
70.5873
 20
53.4776
 30
0.0
 11
70.5873
 21
67.3269
 31
0.0
  0
LINE
  8
0
 62
     0
 10
51.5373
 20
75.8994
 30
0.0
 11
65.3881
 21
75.8994
 31
0.0
  0
LINE
  8
0
 62
     0
 10
65.3881
 20
75.8994
 30
0.0
 11
65.3881
 21
62.0504
 31
0.0
  0
LINE
  8
0
 62
     0
 10
65.3881
 20
62.0504
 30
0.0
 11
51.5373
 21
62.0504
 31
0.0
  0
LINE
  8
0
 62
     0
 10
51.5373
 20
62.0504
 30
0.0
 11
51.5373
 21
75.8994
 31
0.0
  0
LINE
  8
0
 62
     0
 10
32.4872
 20
77.8055
 30
0.0
 11
46.3381
 21
77.8055
 31
0.0
  0
LINE
  8
0
 62
     0
 10
46.3381
 20
77.8055
 30
0.0
 11
46.3381
 21
63.9547
 31
0.0
  0
LINE
  8
0
 62
     0
 10
46.3381
 20
63.9547
 30
0.0
 11
32.4872
 21
63.9547
 31
0.0
  0
LINE
  8
0
 62
     0
 10
32.4872
 20
63.9547
 30
0.0
 11
32.4872
 21
77.8055
 31
0.0
  0
LINE
  8
0
 62
     0
 10
111.545
 20
82.5666
 30
0.0
 11
125.396
 21
82.5666
 31
0.0
  0
LINE
  8
0
 62
     0
 10
125.396
 20
82.5666
 30
0.0
 11
125.396
 21
68.7172
 31
0.0
  0
LINE
  8
0
 62
     0
 10
125.396
 20
68.7172
 30
0.0
 11
111.545
 21
68.7172
 31
0.0
  0
LINE
  8
0
 62
     0
 10
111.545
 20
68.7172
 30
0.0
 11
111.545
 21
82.5666
 31
0.0
  0
LINE
  8
0
 62
     0
 10
13.4372
 20
82.5666
 30
0.0
 11
27.2879
 21
82.5666
 31
0.0
  0
LINE
  8
0
 62
     0
 10
27.2879
 20
82.5666
 30
0.0
 11
27.2879
 21
68.7172
 31
0.0
  0
LINE
  8
0
 62
     0
 10
27.2879
 20
68.7172
 30
0.0
 11
13.4372
 21
68.7172
 31
0.0
  0
LINE
  8
0
 62
     0
 10
13.4372
 20
68.7172
 30
0.0
 11
13.4372
 21
82.5666
 31
0.0
  0
LINE
  8
0
 62
     0
 10
92.4952
 20
83.5201
 30
0.0
 11
106.346
 21
83.5201
 31
0.0
  0
LINE
  8
0
 62
     0
 10
106.346
 20
83.5201
 30
0.0
 11
106.346
 21
69.6694
 31
0.0
  0
LINE
  8
0
 62
     0
 10
106.346
 20
69.6694
 30
0.0
 11
92.4952
 21
69.6694
 31
0.0
  0
LINE
  8
0
 62
     0
 10
92.4952
 20
69.6694
 30
0.0
 11
92.4952
 21
83.5201
 31
0.0
  0
LINE
  8
0
 62
     0
 10
70.5873
 20
86.3769
 30
0.0
 11
84.4381
 21
86.3769
 31
0.0
  0
LINE
  8
0
 62
     0
 10
84.4381
 20
86.3769
 30
0.0
 11
84.4381
 21
72.5262
 31
0.0
  0
LINE
  8
0
 62
     0
 10
84.4381
 20
72.5262
 30
0.0
 11
70.5873
 21
72.5262
 31
0.0
  0
LINE
  8
0
 62
     0
 10
70.5873
 20
72.5262
 30
0.0
 11
70.5873
 21
86.3769
 31
0.0
  0
LINE
  8
0
 62
     0
 10
111.545
 20
101.617
 30
0.0
 11
125.396
 21
101.617
 31
0.0
  0
LINE
  8
0
 62
     0
 10
125.396
 20
101.617
 30
0.0
 11
125.396
 21
87.7672
 31
0.0
  0
LINE
  8
0
 62
     0
 10
125.396
 20
87.7672
 30
0.0
 11
111.545
 21
87.7672
 31
0.0
  0
LINE
  8
0
 62
     0
 10
111.545
 20
87.7672
 30
0.0
 11
111.545
 21
101.617
 31
0.0
  0
LINE
  8
0
 62
     0
 10
6.7703
 20
102.57
 30
0.0
 11
20.621
 21
102.57
 31
0.0
  0
LINE
  8
0
 62
     0
 10
20.621
 20
102.57
 30
0.0
 11
20.621
 21
88.7194
 31
0.0
  0
LINE
  8
0
 62
     0
 10
20.621
 20
88.7194
 30
0.0
 11
6.7703
 21
88.7194
 31
0.0
  0
LINE
  8
0
 62
     0
 10
6.7703
 20
88.7194
 30
0.0
 11
6.7703
 21
102.57
 31
0.0
  0
LINE
  8
0
 62
     0
 10
83.7269
 20
92.3163
 30
0.0
 11
97.1049
 21
88.7307
 31
0.0
  0
LINE
  8
0
 62
     0
 10
97.1049
 20
88.7307
 30
0.0
 11
100.689
 21
102.108
 31
0.0
  0
LINE
  8
0
 62
     0
 10
100.689
 20
102.108
 30
0.0
 11
87.3111
 21
105.694
 31
0.0
  0
LINE
  8
0
 62
     0
 10
87.3111
 20
105.694
 30
0.0
 11
83.7269
 21
92.3163
 31
0.0
  0
LINE
  8
0
 62
     0
 10
25.8189
 20
103.522
 30
0.0
 11
39.6695
 21
103.522
 31
0.0
  0
LINE
  8
0
 62
     0
 10
39.6695
 20
103.522
 30
0.0
 11
39.6695
 21
89.6719
 31
0.0
  0
LINE
  8
0
 62
     0
 10
39.6695
 20
89.6719
 30
0.0
 11
25.8189
 21
89.6719
 31
0.0
  0
LINE
  8
0
 62
     0
 10
25.8189
 20
89.6719
 30
0.0
 11
25.8189
 21
103.522
 31
0.0
  0
LINE
  8
0
 62
     0
 10
44.8702
 20
104.474
 30
0.0
 11
58.7195
 21
104.474
 31
0.0
  0
LINE
  8
0
 62
     0
 10
58.7195
 20
104.474
 30
0.0
 11
58.7195
 21
90.6254
 31
0.0
  0
LINE
  8
0
 62
     0
 10
58.7195
 20
90.6254
 30
0.0
 11
44.8702
 21
90.6254
 31
0.0
  0
LINE
  8
0
 62
     0
 10
44.8702
 20
90.6254
 30
0.0
 11
44.8702
 21
104.474
 31
0.0
  0
LINE
  8
0
 62
     0
 10
63.9202
 20
105.427
 30
0.0
 11
77.7709
 21
105.427
 31
0.0
  0
LINE
  8
0
 62
     0
 10
77.7709
 20
105.427
 30
0.0
 11
77.7709
 21
91.5762
 31
0.0
  0
LINE
  8
0
 62
     0
 10
77.7709
 20
91.5762
 30
0.0
 11
63.9202
 21
91.5762
 31
0.0
  0
LINE
  8
0
 62
     0
 10
63.9202
 20
91.5762
 30
0.0
 11
63.9202
 21
105.427
 31
0.0
  0
LINE
  8
0
 62
     0
 10
130.663
 20
109.482
 30
0.0
 11
130.405
 21
109.35
 31
0.0
  0
LINE
  8
0
 62
     0
 10
130.405
 20
109.35
 30
0.0
 11
130.2
 21
109.146
 31
0.0
  0
LINE
  8
0
 62
     0
 10
130.2
 20
109.146
 30
0.0
 11
130.069
 21
108.887
 31
0.0
  0
LINE
  8
0
 62
     0
 10
130.069
 20
108.887
 30
0.0
 11
130.023
 21
108.602
 31
0.0
  0
LINE
  8
0
 62
     0
 10
130.023
 20
108.602
 30
0.0
 11
130.069
 21
108.317
 31
0.0
  0
LINE
  8
0
 62
     0
 10
130.069
 20
108.317
 30
0.0
 11
130.2
 21
108.059
 31
0.0
  0
LINE
  8
0
 62
     0
 10
130.2
 20
108.059
 30
0.0
 11
130.405
 21
107.854
 31
0.0
  0
LINE
  8
0
 62
     0
 10
130.405
 20
107.854
 30
0.0
 11
130.663
 21
107.722
 31
0.0
  0
LINE
  8
0
 62
     0
 10
130.663
 20
107.722
 30
0.0
 11
130.948
 21
107.677
 31
0.0
  0
LINE
  8
0
 62
     0
 10
130.948
 20
107.677
 30
0.0
 11
131.235
 21
107.722
 31
0.0
  0
LINE
  8
0
 62
     0
 10
131.235
 20
107.722
 30
0.0
 11
131.492
 21
107.854
 31
0.0
  0
LINE
  8
0
 62
     0
 10
131.492
 20
107.854
 30
0.0
 11
131.697
 21
108.059
 31
0.0
  0
LINE
  8
0
 62
     0
 10
131.697
 20
108.059
 30
0.0
 11
131.829
 21
108.317
 31
0.0
  0
LINE
  8
0
 62
     0
 10
131.829
 20
108.317
 30
0.0
 11
131.874
 21
108.602
 31
0.0
  0
LINE
  8
0
 62
     0
 10
131.874
 20
108.602
 30
0.0
 11
131.829
 21
108.887
 31
0.0
  0
LINE
  8
0
 62
     0
 10
131.829
 20
108.887
 30
0.0
 11
131.697
 21
109.146
 31
0.0
  0
LINE
  8
0
 62
     0
 10
131.697
 20
109.146
 30
0.0
 11
131.492
 21
109.35
 31
0.0
  0
LINE
  8
0
 62
     0
 10
131.492
 20
109.35
 30
0.0
 11
131.235
 21
109.482
 31
0.0
  0
LINE
  8
0
 62
     0
 10
131.235
 20
109.482
 30
0.0
 11
130.948
 21
109.527
 31
0.0
  0
LINE
  8
0
 62
     0
 10
130.948
 20
109.527
 30
0.0
 11
130.663
 21
109.482
 31
0.0
  0
LINE
  8
0
 62
     0
 10
1.88516
 20
109.482
 30
0.0
 11
1.62609
 21
109.35
 31
0.0
  0
LINE
  8
0
 62
     0
 10
1.62609
 20
109.35
 30
0.0
 11
1.42214
 21
109.146
 31
0.0
  0
LINE
  8
0
 62
     0
 10
1.42214
 20
109.146
 30
0.0
 11
1.28984
 21
108.887
 31
0.0
  0
LINE
  8
0
 62
     0
 10
1.28984
 20
108.887
 30
0.0
 11
1.24437
 21
108.602
 31
0.0
  0
LINE
  8
0
 62
     0
 10
1.24437
 20
108.602
 30
0.0
 11
1.28984
 21
108.317
 31
0.0
  0
LINE
  8
0
 62
     0
 10
1.28984
 20
108.317
 30
0.0
 11
1.42214
 21
108.059
 31
0.0
  0
LINE
  8
0
 62
     0
 10
1.42214
 20
108.059
 30
0.0
 11
1.62609
 21
107.854
 31
0.0
  0
LINE
  8
0
 62
     0
 10
1.62609
 20
107.854
 30
0.0
 11
1.88516
 21
107.722
 31
0.0
  0
LINE
  8
0
 62
     0
 10
1.88516
 20
107.722
 30
0.0
 11
2.16903
 21
107.677
 31
0.0
  0
LINE
  8
0
 62
     0
 10
2.16903
 20
107.677
 30
0.0
 11
2.45566
 21
107.722
 31
0.0
  0
LINE
  8
0
 62
     0
 10
2.45566
 20
107.722
 30
0.0
 11
2.71336
 21
107.854
 31
0.0
  0
LINE
  8
0
 62
     0
 10
2.71336
 20
107.854
 30
0.0
 11
2.91869
 21
108.059
 31
0.0
  0
LINE
  8
0
 62
     0
 10
2.91869
 20
108.059
 30
0.0
 11
3.0496
 21
108.317
 31
0.0
  0
LINE
  8
0
 62
     0
 10
3.0496
 20
108.317
 30
0.0
 11
3.09507
 21
108.602
 31
0.0
  0
LINE
  8
0
 62
     0
 10
3.09507
 20
108.602
 30
0.0
 11
3.0496
 21
108.887
 31
0.0
  0
LINE
  8
0
 62
     0
 10
3.0496
 20
108.887
 30
0.0
 11
2.91869
 21
109.146
 31
0.0
  0
LINE
  8
0
 62
     0
 10
2.91869
 20
109.146
 30
0.0
 11
2.71336
 21
109.35
 31
0.0
  0
LINE
  8
0
 62
     0
 10
2.71336
 20
109.35
 30
0.0
 11
2.45566
 21
109.482
 31
0.0
  0
LINE
  8
0
 62
     0
 10
2.45566
 20
109.482
 30
0.0
 11
2.17041
 21
109.527
 31
0.0
  0
LINE
  8
0
 62
     0
 10
2.17041
 20
109.527
 30
0.0
 11
1.88516
 21
109.482
 31
0.0
  0
ENDSEC
  0
EOF
