<?xml version="1.0"?>
<!-- Generated by SVGo -->
<svg width="142.779mm" height="176.399mm"
     viewBox="0.000 0.000 142.779 176.399"
     xmlns="http://www.w3.org/2000/svg" 
     xmlns:xlink="http://www.w3.org/1999/xlink">
<polygon points="135.779,5.001 135.936,5.007 136.092,5.025 136.246,5.056 136.397,5.098 136.544,5.153 136.687,5.218 136.824,5.295 136.955,5.382 137.078,5.480 137.193,5.586 137.300,5.702 137.397,5.825 137.484,5.956 137.561,6.093 137.627,6.235 137.681,6.382 137.724,6.534 137.754,6.688 137.773,6.844 137.779,7.001 137.779,169.399 137.773,169.556 137.754,169.712 137.724,169.866 137.681,170.017 137.627,170.164 137.561,170.307 137.484,170.444 137.397,170.575 137.300,170.698 137.193,170.813 137.078,170.920 136.955,171.017 136.824,171.104 136.687,171.181 136.544,171.247 136.397,171.301 136.246,171.344 136.092,171.374 135.936,171.393 135.779,171.399 7.001,171.399 6.844,171.393 6.688,171.374 6.534,171.344 6.382,171.301 6.235,171.247 6.093,171.181 5.956,171.104 5.825,171.017 5.702,170.920 5.586,170.813 5.480,170.698 5.382,170.575 5.295,170.444 5.218,170.307 5.153,170.164 5.098,170.017 5.056,169.866 5.025,169.712 5.007,169.556 5.000,169.399 5.001,7.001 5.007,6.844 5.025,6.688 5.056,6.534 5.098,6.382 5.153,6.235 5.218,6.093 5.295,5.956 5.382,5.825 5.480,5.702 5.586,5.586 5.702,5.480 5.825,5.382 5.956,5.295 6.093,5.218 6.235,5.153 6.382,5.098 6.534,5.056 6.688,5.025 6.844,5.007 7.001,5.000" style="fill:none;stroke-width:0.050000mm;stroke:black"/>
<polygon points="135.470,168.448 135.191,168.590 134.970,168.811 134.828,169.090 134.779,169.399 134.828,169.708 134.970,169.987 135.191,170.208 135.470,170.350 135.779,170.399 136.088,170.350 136.367,170.208 136.588,169.987 136.730,169.708 136.779,169.399 136.730,169.090 136.588,168.811 136.367,168.590 136.088,168.448 135.779,168.399" style="fill:none;stroke-width:0.050000mm;stroke:black"/>
<polygon points="6.691,168.448 6.413,168.590 6.191,168.811 6.049,169.090 6.001,169.399 6.049,169.708 6.191,169.987 6.413,170.208 6.691,170.350 7.001,170.399 7.310,170.350 7.588,170.208 7.810,169.987 7.952,169.708 8.001,169.399 7.952,169.090 7.810,168.811 7.588,168.590 7.310,168.448 7.001,168.399" style="fill:none;stroke-width:0.050000mm;stroke:black"/>
<polygon points="97.251,94.873 97.251,108.873 111.251,108.873 111.251,94.873" style="fill:none;stroke-width:0.050000mm;stroke:black"/>
<polygon points="78.201,90.111 78.201,104.111 92.201,104.111 92.201,90.111" style="fill:none;stroke-width:0.050000mm;stroke:black"/>
<polygon points="116.301,75.823 116.301,89.823 130.301,89.823 130.301,75.823" style="fill:none;stroke-width:0.050000mm;stroke:black"/>
<polygon points="97.251,75.823 97.251,89.823 111.251,89.823 111.251,75.823" style="fill:none;stroke-width:0.050000mm;stroke:black"/>
<polygon points="78.201,71.061 78.201,85.061 92.201,85.061 92.201,71.061" style="fill:none;stroke-width:0.050000mm;stroke:black"/>
<polygon points="56.293,66.298 56.293,80.298 70.293,80.298 70.293,66.298" style="fill:none;stroke-width:0.050000mm;stroke:black"/>
<polygon points="34.068,71.852 47.591,75.476 51.214,61.953 37.691,58.329" style="fill:none;stroke-width:0.050000mm;stroke:black"/>
<polygon points="15.667,66.922 29.190,70.545 32.813,57.022 19.290,53.399" style="fill:none;stroke-width:0.050000mm;stroke:black"/>
<polygon points="117.253,52.011 117.253,66.010 131.253,66.010 131.253,52.011" style="fill:none;stroke-width:0.050000mm;stroke:black"/>
<polygon points="98.203,51.058 98.203,65.058 112.203,65.058 112.203,51.058" style="fill:none;stroke-width:0.050000mm;stroke:black"/>
<polygon points="75.343,48.200 75.343,62.200 89.343,62.200 89.343,48.200" style="fill:none;stroke-width:0.050000mm;stroke:black"/>
<polygon points="56.293,39.628 56.293,53.628 70.293,53.628 70.293,39.628" style="fill:none;stroke-width:0.050000mm;stroke:black"/>
<polygon points="37.243,37.723 37.243,51.723 51.243,51.723 51.243,37.723" style="fill:none;stroke-width:0.050000mm;stroke:black"/>
<polygon points="116.301,32.961 116.301,46.961 130.301,46.961 130.301,32.961" style="fill:none;stroke-width:0.050000mm;stroke:black"/>
<polygon points="18.193,32.961 18.193,46.961 32.193,46.961 32.193,32.961" style="fill:none;stroke-width:0.050000mm;stroke:black"/>
<polygon points="97.251,32.007 97.251,46.008 111.251,46.008 111.251,32.007" style="fill:none;stroke-width:0.050000mm;stroke:black"/>
<polygon points="75.343,29.151 75.343,43.151 89.343,43.151 89.343,29.151" style="fill:none;stroke-width:0.050000mm;stroke:black"/>
<polygon points="116.301,13.910 116.301,27.910 130.301,27.910 130.301,13.910" style="fill:none;stroke-width:0.050000mm;stroke:black"/>
<polygon points="14.905,13.583 15.881,27.549 29.847,26.572 28.871,12.606" style="fill:none;stroke-width:0.050000mm;stroke:black"/>
<polygon points="93.581,22.716 107.104,26.339 110.727,12.817 97.204,9.193" style="fill:none;stroke-width:0.050000mm;stroke:black"/>
<polygon points="33.908,12.254 34.885,26.220 48.851,25.243 47.874,11.277" style="fill:none;stroke-width:0.050000mm;stroke:black"/>
<polygon points="52.912,10.925 53.889,24.891 67.854,23.914 66.878,9.949" style="fill:none;stroke-width:0.050000mm;stroke:black"/>
<polygon points="71.916,9.596 72.892,23.562 86.858,22.586 85.881,8.620" style="fill:none;stroke-width:0.050000mm;stroke:black"/>
<polygon points="135.470,6.049 135.191,6.191 134.970,6.413 134.828,6.691 134.779,7.001 134.828,7.310 134.970,7.588 135.191,7.810 135.470,7.952 135.779,8.001 136.088,7.952 136.367,7.810 136.588,7.588 136.730,7.310 136.779,7.001 136.730,6.691 136.588,6.413 136.367,6.191 136.088,6.049 135.779,6.001" style="fill:none;stroke-width:0.050000mm;stroke:black"/>
<polygon points="6.691,6.049 6.413,6.191 6.191,6.413 6.049,6.691 6.001,7.001 6.049,7.310 6.191,7.588 6.413,7.810 6.691,7.952 7.001,8.001 7.310,7.952 7.588,7.810 7.810,7.588 7.952,7.310 8.001,7.001 7.952,6.691 7.810,6.413 7.588,6.191 7.310,6.049 7.001,6.001" style="fill:none;stroke-width:0.050000mm;stroke:black"/>
</svg>
