<?xml version="1.0"?>
<!-- Generated by SVGo -->
<svg width="139.779mm" height="179.399mm"
     viewBox="0.000 0.000 139.779 179.399"
     xmlns="http://www.w3.org/2000/svg" 
     xmlns:xlink="http://www.w3.org/1999/xlink">
<polygon points="132.779,5.001 132.936,5.007 133.092,5.025 133.246,5.056 133.397,5.098 133.544,5.153 133.687,5.218 133.824,5.295 133.955,5.382 134.078,5.480 134.193,5.586 134.300,5.702 134.397,5.825 134.484,5.956 134.561,6.093 134.627,6.235 134.681,6.382 134.724,6.534 134.754,6.688 134.773,6.844 134.779,7.001 134.779,172.399 134.773,172.556 134.754,172.712 134.724,172.866 134.681,173.017 134.627,173.164 134.561,173.307 134.484,173.444 134.397,173.575 134.300,173.698 134.193,173.813 134.078,173.920 133.955,174.017 133.824,174.104 133.687,174.181 133.544,174.247 133.397,174.301 133.246,174.344 133.092,174.374 132.936,174.393 132.779,174.399 7.001,174.399 6.844,174.393 6.688,174.374 6.534,174.344 6.382,174.301 6.235,174.247 6.093,174.181 5.956,174.104 5.825,174.017 5.702,173.920 5.586,173.813 5.480,173.698 5.382,173.575 5.295,173.444 5.218,173.307 5.153,173.164 5.098,173.017 5.056,172.866 5.025,172.712 5.007,172.556 5.000,172.399 5.001,7.001 5.007,6.844 5.025,6.688 5.056,6.534 5.098,6.382 5.153,6.235 5.218,6.093 5.295,5.956 5.382,5.825 5.480,5.702 5.586,5.586 5.702,5.480 5.825,5.382 5.956,5.295 6.093,5.218 6.235,5.153 6.382,5.098 6.534,5.056 6.688,5.025 6.844,5.007 7.001,5.000" style="fill:none;stroke-width:0.050000mm;stroke:black"/>
<polygon points="94.251,97.873 94.251,111.873 108.251,111.873 108.251,97.873" style="fill:none;stroke-width:0.050000mm;stroke:black"/>
<polygon points="75.201,93.111 75.201,107.111 89.201,107.111 89.201,93.111" style="fill:none;stroke-width:0.050000mm;stroke:black"/>
<polygon points="113.301,78.823 113.301,92.823 127.301,92.823 127.301,78.823" style="fill:none;stroke-width:0.050000mm;stroke:black"/>
<polygon points="94.251,78.823 94.251,92.823 108.251,92.823 108.251,78.823" style="fill:none;stroke-width:0.050000mm;stroke:black"/>
<polygon points="75.201,74.061 75.201,88.061 89.201,88.061 89.201,74.061" style="fill:none;stroke-width:0.050000mm;stroke:black"/>
<polygon points="53.293,69.298 53.293,83.298 67.293,83.298 67.293,69.298" style="fill:none;stroke-width:0.050000mm;stroke:black"/>
<polygon points="31.068,74.852 44.591,78.476 48.214,64.953 34.691,61.329" style="fill:none;stroke-width:0.050000mm;stroke:black"/>
<polygon points="12.667,69.922 26.190,73.545 29.813,60.022 16.290,56.399" style="fill:none;stroke-width:0.050000mm;stroke:black"/>
<polygon points="114.253,55.011 114.253,69.010 128.253,69.010 128.253,55.011" style="fill:none;stroke-width:0.050000mm;stroke:black"/>
<polygon points="95.203,54.058 95.203,68.058 109.203,68.058 109.203,54.058" style="fill:none;stroke-width:0.050000mm;stroke:black"/>
<polygon points="72.343,51.200 72.343,65.200 86.343,65.200 86.343,51.200" style="fill:none;stroke-width:0.050000mm;stroke:black"/>
<polygon points="53.293,42.628 53.293,56.628 67.293,56.628 67.293,42.628" style="fill:none;stroke-width:0.050000mm;stroke:black"/>
<polygon points="34.243,40.723 34.243,54.723 48.243,54.723 48.243,40.723" style="fill:none;stroke-width:0.050000mm;stroke:black"/>
<polygon points="113.301,35.961 113.301,49.961 127.301,49.961 127.301,35.961" style="fill:none;stroke-width:0.050000mm;stroke:black"/>
<polygon points="15.193,35.961 15.193,49.961 29.193,49.961 29.193,35.961" style="fill:none;stroke-width:0.050000mm;stroke:black"/>
<polygon points="94.251,35.008 94.251,49.008 108.251,49.008 108.251,35.008" style="fill:none;stroke-width:0.050000mm;stroke:black"/>
<polygon points="72.343,32.151 72.343,46.151 86.343,46.151 86.343,32.151" style="fill:none;stroke-width:0.050000mm;stroke:black"/>
<polygon points="113.301,16.910 113.301,30.910 127.301,30.910 127.301,16.910" style="fill:none;stroke-width:0.050000mm;stroke:black"/>
<polygon points="11.905,16.583 12.881,30.549 26.847,29.572 25.871,15.606" style="fill:none;stroke-width:0.050000mm;stroke:black"/>
<polygon points="90.581,25.716 104.104,29.339 107.727,15.817 94.204,12.193" style="fill:none;stroke-width:0.050000mm;stroke:black"/>
<polygon points="30.908,15.254 31.885,29.220 45.851,28.243 44.874,14.277" style="fill:none;stroke-width:0.050000mm;stroke:black"/>
<polygon points="49.912,13.925 50.889,27.891 64.853,26.914 63.878,12.949" style="fill:none;stroke-width:0.050000mm;stroke:black"/>
<polygon points="68.916,12.596 69.892,26.562 83.858,25.586 82.881,11.620" style="fill:none;stroke-width:0.050000mm;stroke:black"/>
</svg>
