<?xml version="1.0"?>
<!-- Generated by SVGo -->
<svg width="137.779mm" height="178.549mm"
     viewBox="0.000 0.000 137.779 178.549"
     xmlns="http://www.w3.org/2000/svg" 
     xmlns:xlink="http://www.w3.org/1999/xlink">
<polygon points="130.777,5.001 130.936,5.007 131.092,5.025 131.246,5.056 131.397,5.098 131.544,5.153 131.687,5.218 131.824,5.295 131.955,5.382 132.078,5.480 132.193,5.586 132.300,5.702 132.397,5.825 132.484,5.956 132.561,6.093 132.627,6.235 132.681,6.382 132.724,6.534 132.754,6.688 132.773,6.844 132.779,7.001 132.779,171.549 132.773,171.706 132.754,171.862 132.724,172.016 132.681,172.167 132.627,172.314 132.561,172.457 132.484,172.594 132.397,172.725 132.300,172.848 132.193,172.963 132.078,173.070 131.955,173.167 131.824,173.254 131.687,173.331 131.544,173.397 131.397,173.451 131.246,173.494 131.092,173.524 130.936,173.543 130.777,173.549 7.001,173.549 6.844,173.543 6.688,173.524 6.534,173.494 6.382,173.451 6.235,173.397 6.093,173.331 5.956,173.254 5.825,173.167 5.702,173.070 5.586,172.963 5.480,172.848 5.382,172.725 5.295,172.594 5.218,172.457 5.153,172.314 5.098,172.167 5.056,172.016 5.025,171.862 5.007,171.706 5.000,171.549 5.001,7.001 5.007,6.844 5.025,6.688 5.056,6.534 5.098,6.382 5.153,6.235 5.218,6.093 5.295,5.956 5.382,5.825 5.480,5.702 5.586,5.586 5.702,5.480 5.825,5.382 5.956,5.295 6.093,5.218 6.235,5.153 6.382,5.098 6.534,5.056 6.688,5.025 6.844,5.007 7.001,5.000" style="fill:none;stroke-width:0.050000mm;stroke:black"/>
<polygon points="112.301,154.023 112.301,168.023 126.301,168.023 126.301,154.023" style="fill:none;stroke-width:0.050000mm;stroke:black"/>
<polygon points="112.301,134.973 112.301,148.973 126.301,148.973 126.301,134.973" style="fill:none;stroke-width:0.050000mm;stroke:black"/>
<polygon points="112.301,115.923 112.301,129.923 126.301,129.923 126.301,115.923" style="fill:none;stroke-width:0.050000mm;stroke:black"/>
<polygon points="112.301,96.873 112.301,110.873 126.301,110.873 126.301,96.873" style="fill:none;stroke-width:0.050000mm;stroke:black"/>
<polygon points="93.251,96.873 93.251,110.873 107.251,110.873 107.251,96.873" style="fill:none;stroke-width:0.050000mm;stroke:black"/>
<polygon points="74.201,92.111 74.201,106.111 88.201,106.111 88.201,92.111" style="fill:none;stroke-width:0.050000mm;stroke:black"/>
<polygon points="55.151,87.348 55.151,101.348 69.151,101.348 69.151,87.348" style="fill:none;stroke-width:0.050000mm;stroke:black"/>
<polygon points="29.738,93.486 43.261,97.109 46.884,83.586 33.361,79.963" style="fill:none;stroke-width:0.050000mm;stroke:black"/>
<polygon points="11.337,88.555 24.860,92.179 28.483,78.656 14.960,75.032" style="fill:none;stroke-width:0.050000mm;stroke:black"/>
<polygon points="112.301,77.823 112.301,91.823 126.301,91.823 126.301,77.823" style="fill:none;stroke-width:0.050000mm;stroke:black"/>
<polygon points="93.251,77.823 93.251,91.823 107.251,91.823 107.251,77.823" style="fill:none;stroke-width:0.050000mm;stroke:black"/>
<polygon points="74.201,73.061 74.201,87.061 88.201,87.061 88.201,73.061" style="fill:none;stroke-width:0.050000mm;stroke:black"/>
<polygon points="52.293,68.298 52.293,82.298 66.293,82.298 66.293,68.298" style="fill:none;stroke-width:0.050000mm;stroke:black"/>
<polygon points="30.068,73.852 43.591,77.476 47.214,63.953 33.691,60.329" style="fill:none;stroke-width:0.050000mm;stroke:black"/>
<polygon points="11.667,68.922 25.190,72.545 28.813,59.022 15.290,55.399" style="fill:none;stroke-width:0.050000mm;stroke:black"/>
<polygon points="113.253,54.011 113.253,68.010 127.253,68.010 127.253,54.011" style="fill:none;stroke-width:0.050000mm;stroke:black"/>
<polygon points="94.203,53.058 94.203,67.058 108.203,67.058 108.203,53.058" style="fill:none;stroke-width:0.050000mm;stroke:black"/>
<polygon points="71.343,50.200 71.343,64.200 85.343,64.200 85.343,50.200" style="fill:none;stroke-width:0.050000mm;stroke:black"/>
<polygon points="52.293,41.628 52.293,55.628 66.293,55.628 66.293,41.628" style="fill:none;stroke-width:0.050000mm;stroke:black"/>
<polygon points="33.243,39.723 33.243,53.723 47.243,53.723 47.243,39.723" style="fill:none;stroke-width:0.050000mm;stroke:black"/>
<polygon points="112.301,34.961 112.301,48.961 126.301,48.961 126.301,34.961" style="fill:none;stroke-width:0.050000mm;stroke:black"/>
<polygon points="14.193,34.961 14.193,48.961 28.193,48.961 28.193,34.961" style="fill:none;stroke-width:0.050000mm;stroke:black"/>
<polygon points="93.251,34.008 93.251,48.008 107.251,48.008 107.251,34.008" style="fill:none;stroke-width:0.050000mm;stroke:black"/>
<polygon points="71.343,31.151 71.343,45.151 85.343,45.151 85.343,31.151" style="fill:none;stroke-width:0.050000mm;stroke:black"/>
<polygon points="112.301,15.910 112.301,29.910 126.301,29.910 126.301,15.910" style="fill:none;stroke-width:0.050000mm;stroke:black"/>
<polygon points="10.905,15.583 11.881,29.549 25.847,28.572 24.871,14.606" style="fill:none;stroke-width:0.050000mm;stroke:black"/>
<polygon points="89.581,24.716 103.104,28.339 106.727,14.817 93.204,11.193" style="fill:none;stroke-width:0.050000mm;stroke:black"/>
<polygon points="29.908,14.254 30.885,28.220 44.851,27.243 43.874,13.277" style="fill:none;stroke-width:0.050000mm;stroke:black"/>
<polygon points="48.912,12.925 49.889,26.891 63.854,25.914 62.878,11.949" style="fill:none;stroke-width:0.050000mm;stroke:black"/>
<polygon points="67.916,11.596 68.892,25.562 82.858,24.586 81.881,10.620" style="fill:none;stroke-width:0.050000mm;stroke:black"/>
</svg>
