<?xml version="1.0"?>
<!-- Generated by SVGo -->
<svg width="142.929mm" height="120.549mm"
     viewBox="0.000 0.000 142.929 120.549"
     xmlns="http://www.w3.org/2000/svg" 
     xmlns:xlink="http://www.w3.org/1999/xlink">
<polygon points="135.929,5.001 136.086,5.007 136.242,5.025 136.396,5.056 136.547,5.098 136.694,5.153 136.837,5.218 136.974,5.295 137.105,5.382 137.228,5.480 137.343,5.586 137.450,5.702 137.547,5.825 137.634,5.956 137.711,6.093 137.777,6.235 137.831,6.382 137.874,6.534 137.904,6.688 137.923,6.844 137.929,7.001 137.929,113.549 137.923,113.706 137.904,113.862 137.874,114.016 137.831,114.167 137.777,114.314 137.711,114.457 137.634,114.594 137.547,114.725 137.450,114.848 137.343,114.963 137.228,115.070 137.105,115.167 136.974,115.254 136.837,115.331 136.694,115.397 136.547,115.451 136.396,115.494 136.242,115.524 136.086,115.543 135.929,115.549 7.001,115.549 6.844,115.543 6.688,115.524 6.534,115.494 6.382,115.451 6.235,115.397 6.093,115.331 5.956,115.254 5.825,115.167 5.702,115.070 5.586,114.963 5.480,114.848 5.382,114.725 5.295,114.594 5.218,114.457 5.153,114.314 5.098,114.167 5.056,114.016 5.025,113.862 5.007,113.706 5.000,113.549 5.001,7.001 5.007,6.844 5.025,6.688 5.056,6.534 5.098,6.382 5.153,6.235 5.218,6.093 5.295,5.956 5.382,5.825 5.480,5.702 5.586,5.586 5.702,5.480 5.825,5.382 5.956,5.295 6.093,5.218 6.235,5.153 6.382,5.098 6.534,5.056 6.688,5.025 6.844,5.007 7.001,5.000" style="fill:none;stroke-width:0.050000mm;stroke:black"/>
<polygon points="135.568,112.594 135.310,112.726 135.106,112.930 134.974,113.188 134.929,113.474 134.974,113.760 135.106,114.018 135.310,114.222 135.568,114.354 135.854,114.399 136.140,114.354 136.398,114.222 136.602,114.018 136.734,113.760 136.779,113.474 136.734,113.188 136.602,112.930 136.398,112.726 136.140,112.594 135.854,112.549" style="fill:none;stroke-width:0.050000mm;stroke:black"/>
<polygon points="6.790,112.594 6.532,112.726 6.327,112.930 6.196,113.188 6.150,113.474 6.196,113.760 6.327,114.018 6.532,114.222 6.790,114.354 7.075,114.399 7.361,114.354 7.619,114.222 7.824,114.018 7.955,113.760 8.001,113.474 7.955,113.188 7.824,112.930 7.619,112.726 7.361,112.594 7.076,112.549" style="fill:none;stroke-width:0.050000mm;stroke:black"/>
<polygon points="135.568,6.196 135.310,6.327 135.106,6.532 134.974,6.790 134.929,7.076 134.974,7.361 135.106,7.619 135.310,7.824 135.568,7.955 135.854,8.001 136.140,7.955 136.398,7.824 136.602,7.619 136.734,7.361 136.779,7.076 136.734,6.790 136.602,6.532 136.398,6.327 136.140,6.196 135.854,6.151" style="fill:none;stroke-width:0.050000mm;stroke:black"/>
<polygon points="6.790,6.196 6.532,6.327 6.327,6.532 6.196,6.790 6.150,7.076 6.196,7.361 6.327,7.619 6.532,7.824 6.790,7.955 7.075,8.001 7.361,7.955 7.619,7.824 7.824,7.619 7.955,7.361 8.001,7.076 7.955,6.790 7.824,6.532 7.619,6.327 7.361,6.196 7.076,6.151" style="fill:none;stroke-width:0.050000mm;stroke:black"/>
</svg>
